<svg version="1.2" xmlns="http://www.w3.org/2000/svg" viewBox="0 0 1000 346" width="1000" height="346"><style>.a{fill:#ccb05c}.b{fill:#c1981c}</style><path class="a" d="m846.8 117.7c0-34.2-23.7-61.9-52.7-61.9h-237.1c-4.1 0-7.4 3.9-7.4 8.7 0 4.8 3.3 8.7 7.4 8.7h237.1c20.8 0 37.8 20 37.8 44.5 0 24.5-17 44.5-37.8 44.5h-237.1c-4.1 0-7.4 3.9-7.4 8.7 0 4.9 3.3 8.8 7.4 8.8h237.1c29 0 52.7-27.8 52.7-62z"/><path class="a" d="m575 142.6h221.9c1.9 0 3.4-2.9 3.4-6.6 0-3.6-1.5-6.5-3.4-6.5h-221.9c-1.9 0-3.5 2.9-3.5 6.5 0 3.7 1.6 6.6 3.5 6.6z"/><path class="a" d="m575 105.9h221.9c1.9 0 3.4-2.9 3.4-6.5 0-3.6-1.5-6.6-3.4-6.6h-221.9c-1.9 0-3.5 3-3.5 6.6 0 3.6 1.6 6.5 3.5 6.5z"/><path class="a" d="m459.3 295.4h-267.1c-21.3 0-38.6-19.9-38.6-44.5 0-24.5 17.3-44.4 38.6-44.4h267.1c4.2 0 7.6-4 7.6-8.8 0-4.8-3.4-8.7-7.6-8.7h-267.1c-29.6 0-53.8 27.8-53.8 61.9 0 34.2 24.2 62 53.8 62h267.1c4.2 0 7.6-3.9 7.6-8.7 0-4.9-3.4-8.8-7.6-8.8z"/><path class="a" d="m449.9 226.1h-268c-2.1 0-3.8 2.9-3.8 6.5 0 3.6 1.7 6.6 3.8 6.6h268c2.1 0 3.8-3 3.8-6.6 0-3.6-1.7-6.5-3.8-6.5z"/><path class="a" d="m449.9 262.7h-268c-2.1 0-3.8 2.9-3.8 6.6 0 3.6 1.7 6.5 3.8 6.5h268c2.1 0 3.8-2.9 3.8-6.5 0-3.7-1.7-6.6-3.8-6.6z"/><path fill-rule="evenodd" class="b" d="m140 40.2h33.5v119.8h-33.5zm134.2 84.1h-56.3c2.3 6.8 8 10.3 16.3 10.3 7.4 0 11.5-2.1 16.9-6.4l17.5 19.2c-7.9 9.4-19.3 14.2-35.5 14.2-29.8 0-49-19.5-49-45.8 0-26.8 19.7-45.7 45.9-45.7 24 0 44.6 15.8 44.6 45.7 0 2.5-0.3 5.9-0.4 8.5zm-56.9-17.6h26.1c-1.4-7.4-6.3-11.8-13.1-11.8-7 0-11.7 4.4-13 11.8zm145.9 5.8v47.5h-31.2v-11.6c-3.8 8.8-11.5 13.2-23 13.2-19.8 0-30.1-12.3-30.1-27.4 0-17.2 11.9-26.7 37.1-26.7h13.5c-1-6.8-5.8-10.3-15.3-10.3-7.2 0-15.4 2.6-20.7 6.9l-10.7-24c9.5-6.5 23.9-10 36.5-10 27.8 0 43.9 13 43.9 42.4zm-33.6 18.8v-6.2h-8.3c-7.1 0-10.2 2.6-10.2 7.4 0 4.1 3 7.1 8 7.1 4.6 0 8.8-2.5 10.5-8.3zm106.2-61.2v32.3c-3-0.5-5-0.7-7.4-0.7-10.1 0-17.2 5-17.2 19.1v39.2h-33.5v-88.3h31.9v9.5c5.9-7.4 14.9-11.1 26.2-11.1zm99 39.5v50.4h-33.5v-44.1c0-11-3.8-15.2-9.9-15.2-6.8 0-12.6 4.7-12.6 17.8v41.5h-33.5v-88.3h31.9v8.7c6.3-7 14.9-10.3 24.4-10.3 18.7 0 33.2 11.7 33.2 39.5z"/><path fill-rule="evenodd" class="b" d="m481.1 259.8c0-27.5 22.1-46.8 53.3-46.8 22 0 38.5 10.1 44.4 26.8l-28.9 14.2c-3.8-8.4-9.2-11.9-15.7-11.9-8.4 0-15.3 5.9-15.3 17.7 0 11.8 6.9 17.8 15.3 17.8 6.5 0 11.9-3.5 15.7-11.9l28.9 14.2c-5.9 16.7-22.4 26.8-44.4 26.8-31.2 0-53.3-19.4-53.3-46.9zm195.6-3.3v48.5h-34.6v-11.9c-4.3 9.1-12.9 13.6-25.6 13.6-22.2 0-33.5-12.6-33.5-28.1 0-17.5 13.2-27.3 41.2-27.3h15.1c-1.2-6.9-6.5-10.5-17-10.5-8.1 0-17.2 2.6-23.2 7.1l-11.9-24.6c10.6-6.6 26.6-10.3 40.7-10.3 31 0 48.8 13.4 48.8 43.5zm-37.3 19.1v-6.3h-9.2c-7.9 0-11.4 2.7-11.4 7.6 0 4.2 3.3 7.3 8.9 7.3 5.1 0 9.7-2.6 11.7-8.6zm47.9 22.1l10.3-24.6c8.5 5.1 20.8 8.1 31.5 8.1 9.1 0 11.6-1.6 11.6-4.3 0-9.2-52.1 3.2-52.1-33 0-17 15.9-30.9 46.3-30.9 13.2 0 27.2 2.5 36.8 7.5l-10.2 24.6c-9.3-5.2-18.5-6.6-26.1-6.6-9.6 0-12.3 2.1-12.3 4.2 0 9.5 51.9-2.8 51.9 33.4 0 16.3-15.4 30.6-46.7 30.6-15.6 0-31.7-3.7-41-9zm165.5 4.2c-5.8 3.3-14.2 4.8-23 4.8-24.9 0-39.4-11.8-39.4-36.7v-23.1h-12.4v-27.3h12.4v-25.2h37.3v25.2h18.5v27.3h-18.5v22.8c0 5.6 3.3 8.7 7.7 8.7 3 0 6-0.8 8.5-2.5z"/></svg>